<svg xmlns="http://www.w3.org/2000/svg" viewBox="0 0 214.52 65.69"><defs><style>.cls-1{fill:#606060;}.cls-2{fill:#ef4136;}.cls-3{fill:#004e95;}</style></defs><title>Asset 48</title><g id="Layer_2" data-name="Layer 2"><g id="Layer_1-2" data-name="Layer 1"><path class="cls-1" d="M72.57,23.26a5.92,5.92,0,0,1-1,3.65,3.24,3.24,0,0,1-2.73,1.35,3.64,3.64,0,0,1-3.09-1.42v5H64.66V18.25h1l.05,1.39a3.49,3.49,0,0,1,3.08-1.57,3.27,3.27,0,0,1,2.77,1.34,6.05,6.05,0,0,1,1,3.71Zm-1.09-.19a5.06,5.06,0,0,0-.77-3A2.49,2.49,0,0,0,68.55,19a2.87,2.87,0,0,0-2.82,1.88v4.72a2.89,2.89,0,0,0,1.12,1.29,3.22,3.22,0,0,0,1.72.45,2.47,2.47,0,0,0,2.14-1.1A5.51,5.51,0,0,0,71.48,23.07Z"/><path class="cls-1" d="M79.16,28.26a4.27,4.27,0,0,1-2.27-.62,4.21,4.21,0,0,1-1.58-1.72,5.37,5.37,0,0,1-.56-2.48v-.39a5.79,5.79,0,0,1,.55-2.55,4.37,4.37,0,0,1,1.53-1.79A3.78,3.78,0,0,1,79,18.07a3.55,3.55,0,0,1,2.84,1.22,5,5,0,0,1,1,3.34v.61h-7v.21a4.12,4.12,0,0,0,1,2.79,3,3,0,0,0,2.41,1.11A3.54,3.54,0,0,0,80.74,27,3.41,3.41,0,0,0,82,26l.68.52A4,4,0,0,1,79.16,28.26ZM79,19a2.72,2.72,0,0,0-2.07.9,4.16,4.16,0,0,0-1,2.42h5.9v-.12A3.61,3.61,0,0,0,81,19.88,2.51,2.51,0,0,0,79,19Z"/><path class="cls-1" d="M89.88,19.18a4.07,4.07,0,0,0-.74-.06,2.66,2.66,0,0,0-1.72.57,3.11,3.11,0,0,0-1,1.65v6.75H85.34V18.25H86.4l0,1.56a2.89,2.89,0,0,1,2.77-1.74,1.79,1.79,0,0,1,.72.12Z"/><path class="cls-1" d="M91.91,15.41a.73.73,0,0,1,.2-.52.71.71,0,0,1,.55-.21.73.73,0,0,1,.55.21.72.72,0,0,1,.2.52.7.7,0,0,1-.2.51.74.74,0,0,1-.55.21.72.72,0,0,1-.55-.21A.71.71,0,0,1,91.91,15.41Zm1.28,12.67H92.1V18.25h1.09Z"/><path class="cls-1" d="M98.21,15.73v2.52h2v.89h-2V25.7a2.05,2.05,0,0,0,.3,1.22,1.14,1.14,0,0,0,1,.4,6.76,6.76,0,0,0,.88-.09l0,.88a3.56,3.56,0,0,1-1.16.15,1.94,1.94,0,0,1-1.63-.65,3.06,3.06,0,0,1-.51-1.91V19.14H95.31v-.89h1.81V15.73Z"/><path class="cls-1" d="M102.09,23a5.79,5.79,0,0,1,.55-2.55,4.13,4.13,0,0,1,3.83-2.4,4,4,0,0,1,3.18,1.38,5.31,5.31,0,0,1,1.22,3.65v.23a5.84,5.84,0,0,1-.55,2.57,4.11,4.11,0,0,1-1.55,1.76,4.25,4.25,0,0,1-2.28.62,4,4,0,0,1-3.18-1.38,5.29,5.29,0,0,1-1.22-3.65Zm1.09.3a4.46,4.46,0,0,0,.91,2.89,3.09,3.09,0,0,0,4.78,0,4.61,4.61,0,0,0,.91-3V23a5,5,0,0,0-.42-2.06,3.36,3.36,0,0,0-1.17-1.45,3,3,0,0,0-1.73-.51,2.91,2.91,0,0,0-2.37,1.14,4.62,4.62,0,0,0-.92,3Z"/><path class="cls-1" d="M114.52,18.25l0,1.68a3.9,3.9,0,0,1,1.38-1.39,3.59,3.59,0,0,1,1.83-.48,3,3,0,0,1,2.35.89,4,4,0,0,1,.78,2.67v6.45h-1.08V21.62a3,3,0,0,0-.56-2A2.19,2.19,0,0,0,117.5,19a2.75,2.75,0,0,0-1.79.63,3.7,3.7,0,0,0-1.15,1.7v6.73h-1.08V18.25Z"/><path class="cls-1" d="M127.88,28.26a4.27,4.27,0,0,1-2.27-.62A4.21,4.21,0,0,1,124,25.92a5.37,5.37,0,0,1-.56-2.48v-.39A5.79,5.79,0,0,1,124,20.5a4.37,4.37,0,0,1,1.53-1.79,3.78,3.78,0,0,1,2.13-.65,3.55,3.55,0,0,1,2.84,1.22,5,5,0,0,1,1,3.34v.61h-7v.21a4.12,4.12,0,0,0,1,2.79,3,3,0,0,0,2.41,1.11,3.54,3.54,0,0,0,1.54-.32,3.41,3.41,0,0,0,1.21-1l.68.52A4,4,0,0,1,127.88,28.26Zm-.2-9.27a2.72,2.72,0,0,0-2.07.9,4.16,4.16,0,0,0-1,2.42h5.9v-.12a3.61,3.61,0,0,0-.81-2.31A2.51,2.51,0,0,0,127.69,19Z"/><path class="cls-1" d="M140.27,28.08a5.14,5.14,0,0,1-.21-1.37,3.79,3.79,0,0,1-1.46,1.15,4.47,4.47,0,0,1-1.88.4,3.3,3.3,0,0,1-2.29-.79,2.58,2.58,0,0,1-.88-2,2.63,2.63,0,0,1,1.2-2.27,5.74,5.74,0,0,1,3.33-.84h2V21.25a2.15,2.15,0,0,0-.65-1.66,2.69,2.69,0,0,0-1.89-.6,3,3,0,0,0-1.88.58,1.73,1.73,0,0,0-.75,1.4h-1.09a2.53,2.53,0,0,1,1.09-2,4.2,4.2,0,0,1,2.68-.86,3.83,3.83,0,0,1,2.59.82,3,3,0,0,1,1,2.29v4.65a5.77,5.77,0,0,0,.3,2.14v.11Zm-3.42-.78a3.65,3.65,0,0,0,1.95-.53,3.1,3.1,0,0,0,1.25-1.41V23.2h-1.94a4.87,4.87,0,0,0-2.54.6,1.79,1.79,0,0,0-.92,1.59,1.76,1.76,0,0,0,.61,1.37A2.31,2.31,0,0,0,136.85,27.3Z"/><path class="cls-1" d="M145.62,28.08h-1.09v-14h1.09Z"/><path class="cls-1" d="M153.41,23.07a5.93,5.93,0,0,1,1-3.65,3.29,3.29,0,0,1,2.78-1.36,3.42,3.42,0,0,1,3,1.57V14.12h1.08v14h-1l0-1.31a3.51,3.51,0,0,1-3.07,1.49,3.28,3.28,0,0,1-2.74-1.37,6,6,0,0,1-1-3.69Zm1.1.19a5.13,5.13,0,0,0,.75,3,2.44,2.44,0,0,0,2.13,1.09,2.93,2.93,0,0,0,2.85-1.77V20.93A2.91,2.91,0,0,0,157.41,19a2.47,2.47,0,0,0-2.14,1.08A5.48,5.48,0,0,0,154.51,23.26Z"/><path class="cls-1" d="M164.5,15.41a.73.73,0,0,1,.2-.52.71.71,0,0,1,.55-.21.73.73,0,0,1,.55.21.72.72,0,0,1,.2.52.7.7,0,0,1-.2.51.74.74,0,0,1-.55.21.72.72,0,0,1-.55-.21A.71.71,0,0,1,164.5,15.41Zm1.28,12.67h-1.09V18.25h1.09Z"/><path class="cls-1" d="M175.31,28.08a5.14,5.14,0,0,1-.21-1.37,3.79,3.79,0,0,1-1.46,1.15,4.47,4.47,0,0,1-1.88.4,3.3,3.3,0,0,1-2.29-.79,2.58,2.58,0,0,1-.88-2,2.63,2.63,0,0,1,1.2-2.27,5.74,5.74,0,0,1,3.33-.84h2V21.25a2.15,2.15,0,0,0-.65-1.66,2.69,2.69,0,0,0-1.89-.6,3,3,0,0,0-1.88.58,1.73,1.73,0,0,0-.75,1.4h-1.09a2.53,2.53,0,0,1,1.09-2,4.2,4.2,0,0,1,2.68-.86,3.83,3.83,0,0,1,2.59.82,3,3,0,0,1,1,2.29v4.65a5.77,5.77,0,0,0,.3,2.14v.11Zm-3.42-.78a3.65,3.65,0,0,0,1.95-.53,3.1,3.1,0,0,0,1.25-1.41V23.2h-1.94a4.87,4.87,0,0,0-2.54.6,1.79,1.79,0,0,0-.92,1.59,1.76,1.76,0,0,0,.61,1.37A2.31,2.31,0,0,0,171.89,27.3Z"/><path class="cls-1" d="M180.66,28.08h-1.09v-14h1.09Z"/><path class="cls-1" d="M187.11,26.52,190,18.25h1.17L187,29.75l-.22.51a2.64,2.64,0,0,1-2.5,1.79,3.05,3.05,0,0,1-.84-.13V31l.56.05a2,2,0,0,0,1.29-.4,3,3,0,0,0,.84-1.36l.48-1.33-3.71-9.75h1.19Z"/><path class="cls-1" d="M199.09,25.58a1.55,1.55,0,0,0-.65-1.3,5,5,0,0,0-2-.77,8.83,8.83,0,0,1-2-.64,2.7,2.7,0,0,1-1.07-.88,2.19,2.19,0,0,1-.35-1.25,2.34,2.34,0,0,1,1-1.92,3.93,3.93,0,0,1,2.49-.76,4,4,0,0,1,2.64.81,2.61,2.61,0,0,1,1,2.12H199a1.76,1.76,0,0,0-.72-1.44,3.26,3.26,0,0,0-3.54-.1,1.47,1.47,0,0,0-.65,1.24,1.34,1.34,0,0,0,.54,1.14,5.72,5.72,0,0,0,2,.74,9.27,9.27,0,0,1,2.14.72,2.78,2.78,0,0,1,1.06.92,2.52,2.52,0,0,1-.66,3.29,4.29,4.29,0,0,1-2.62.75,4.4,4.4,0,0,1-2.79-.83,2.56,2.56,0,0,1-1.07-2.1h1.09a1.89,1.89,0,0,0,.8,1.49,3.29,3.29,0,0,0,2,.53,3.09,3.09,0,0,0,1.84-.5A1.5,1.5,0,0,0,199.09,25.58Z"/><path class="cls-1" d="M202.94,15.41a.73.73,0,0,1,.2-.52.71.71,0,0,1,.55-.21.73.73,0,0,1,.55.21.72.72,0,0,1,.2.52.7.7,0,0,1-.2.51.74.74,0,0,1-.55.21.72.72,0,0,1-.55-.21A.71.71,0,0,1,202.94,15.41Zm1.28,12.67h-1.09V18.25h1.09Z"/><path class="cls-1" d="M213.43,25.58a1.55,1.55,0,0,0-.65-1.3,5,5,0,0,0-2-.77,8.83,8.83,0,0,1-2-.64,2.7,2.7,0,0,1-1.07-.88,2.19,2.19,0,0,1-.35-1.25,2.34,2.34,0,0,1,1-1.92,3.93,3.93,0,0,1,2.49-.76,4,4,0,0,1,2.64.81,2.61,2.61,0,0,1,1,2.12h-1.09a1.76,1.76,0,0,0-.72-1.44,3.26,3.26,0,0,0-3.54-.1,1.47,1.47,0,0,0-.65,1.24,1.34,1.34,0,0,0,.54,1.14,5.72,5.72,0,0,0,2,.74,9.27,9.27,0,0,1,2.14.72,2.78,2.78,0,0,1,1.06.92,2.52,2.52,0,0,1-.66,3.29,4.29,4.29,0,0,1-2.62.75,4.4,4.4,0,0,1-2.79-.83,2.56,2.56,0,0,1-1.07-2.1h1.09a1.89,1.89,0,0,0,.8,1.49,3.29,3.29,0,0,0,2,.53,3.09,3.09,0,0,0,1.84-.5A1.5,1.5,0,0,0,213.43,25.58Z"/><path class="cls-2" d="M0,13.18V9.63H8.54l.28,2.54A7,7,0,0,1,11.14,10a6.26,6.26,0,0,1,3.14-.77,7.25,7.25,0,0,1,6.29,3.16,14.12,14.12,0,0,1,2.24,8.32v.42a12.52,12.52,0,0,1-2.24,7.78,7.4,7.4,0,0,1-6.25,2.94,7,7,0,0,1-3-.63A6.25,6.25,0,0,1,9,29.35v6.31l2.84.6v3.55H.3V36.26l2.84-.6V13.78Zm16.92,7.53a10.55,10.55,0,0,0-1-5,3.35,3.35,0,0,0-3.14-1.91,4.44,4.44,0,0,0-2.27.54A3.88,3.88,0,0,0,9,15.9v9.55a3.61,3.61,0,0,0,1.48,1.41,5,5,0,0,0,2.31.48,3.38,3.38,0,0,0,3.13-1.67,8.83,8.83,0,0,0,1-4.53Z"/><path class="cls-2" d="M39,28.77a7.22,7.22,0,0,1-2.43,2.3,6.41,6.41,0,0,1-3.19.79,7.39,7.39,0,0,1-6.26-2.94,12.56,12.56,0,0,1-2.23-7.78v-.42a14.12,14.12,0,0,1,2.24-8.32,7.25,7.25,0,0,1,6.29-3.16,6,6,0,0,1,2.94.72,7.2,7.2,0,0,1,2.3,2V4.15l-3.14-.6V0h9V27.3l2.82.6v3.53H39.43Zm-8.22-7.64a9,9,0,0,0,1,4.5,3.34,3.34,0,0,0,3.13,1.64,4.55,4.55,0,0,0,2.24-.52,4.18,4.18,0,0,0,1.55-1.51V16a4.48,4.48,0,0,0-1.54-1.62,4.14,4.14,0,0,0-2.21-.57,3.3,3.3,0,0,0-3.14,1.91,10.91,10.91,0,0,0-1,5Z"/><path class="cls-3" d="M29.87,57.73a9.81,9.81,0,0,1-7.53-3A10.8,10.8,0,0,1,19.51,47v-.81a11.92,11.92,0,0,1,2.67-8,8.86,8.86,0,0,1,7.16-3.12,8.83,8.83,0,0,1,6.85,2.66A10.23,10.23,0,0,1,38.63,45v3.2h-13l0,.12A5.69,5.69,0,0,0,27,51.83a4.49,4.49,0,0,0,3.48,1.39,11.32,11.32,0,0,0,3.24-.39,14.92,14.92,0,0,0,2.82-1.24l1.59,3.63A11.58,11.58,0,0,1,34.65,57,14.88,14.88,0,0,1,29.87,57.73Zm-.52-18.09a3.06,3.06,0,0,0-2.58,1.25,6.5,6.5,0,0,0-1.17,3.28l.06.1h7.21v-.52a4.72,4.72,0,0,0-.88-3A3.16,3.16,0,0,0,29.34,39.64Z"/><path class="cls-3" d="M40.11,39.06V35.51h8.6L49,38.39A7.32,7.32,0,0,1,51.58,36a7.56,7.56,0,0,1,3.66-.86,6.66,6.66,0,0,1,3.59.93,5.72,5.72,0,0,1,2.26,2.8A7.55,7.55,0,0,1,63.7,36.1a7.11,7.11,0,0,1,3.79-1,6.28,6.28,0,0,1,5.09,2.23q1.86,2.23,1.86,6.78v9.07l2.84.6v3.53H66V53.78l2.54-.6V44.09a5.51,5.51,0,0,0-.81-3.45,2.94,2.94,0,0,0-2.4-1,4.11,4.11,0,0,0-2.17.55,4,4,0,0,0-1.46,1.54q0,.38,0,.65t0,.55V53.18l2.38.6v3.53H53.53V53.78l2.38-.6V44.09a5.53,5.53,0,0,0-.81-3.41,2.92,2.92,0,0,0-2.42-1,4.56,4.56,0,0,0-2.09.45,4,4,0,0,0-1.48,1.28V53.18l2.54.6v3.53H40.41V53.78l2.84-.6V39.66Z"/><path class="cls-3" d="M78.11,39.06V35.51h8.54L86.93,38a7,7,0,0,1,2.32-2.18,6.26,6.26,0,0,1,3.14-.77,7.25,7.25,0,0,1,6.29,3.16,14.12,14.12,0,0,1,2.24,8.32V47a12.52,12.52,0,0,1-2.24,7.78,7.4,7.4,0,0,1-6.25,2.94,7,7,0,0,1-3-.63,6.25,6.25,0,0,1-2.28-1.86v6.31l2.84.6v3.55H78.41V62.14l2.84-.6V39.66ZM95,46.59a10.55,10.55,0,0,0-1-5,3.35,3.35,0,0,0-3.14-1.91,4.44,4.44,0,0,0-2.27.54,3.88,3.88,0,0,0-1.48,1.55v9.55a3.61,3.61,0,0,0,1.48,1.41,5,5,0,0,0,2.31.48A3.38,3.38,0,0,0,94,51.55,8.83,8.83,0,0,0,95,47Z"/><path class="cls-3" d="M102.92,46.21a11.67,11.67,0,0,1,2.73-8,10.74,10.74,0,0,1,15.11,0,11.66,11.66,0,0,1,2.73,8v.42a11.65,11.65,0,0,1-2.73,8,10.77,10.77,0,0,1-15.11,0,11.65,11.65,0,0,1-2.73-8Zm5.88.42a9.48,9.48,0,0,0,1,4.78,4,4,0,0,0,6.72,0,9.42,9.42,0,0,0,1.06-4.77v-.42a9.33,9.33,0,0,0-1.07-4.73,3.61,3.61,0,0,0-3.36-1.83,3.57,3.57,0,0,0-3.34,1.83,9.47,9.47,0,0,0-1,4.73Z"/><path class="cls-3" d="M155.87,39.06l-2.2.28-4.55,18h-4.92l-4-13H140l-4,13h-4.9l-4.57-18-2.2-.28V35.51h9.87v3.55l-2.32.44,2.05,10h.12l4.07-14h3.95l4.11,14h.12l2-10L146,39.06V35.51h9.87Z"/><path class="cls-3" d="M167.29,57.73a9.81,9.81,0,0,1-7.53-3A10.8,10.8,0,0,1,156.94,47v-.81a11.92,11.92,0,0,1,2.67-8,10,10,0,0,1,14-.46A10.23,10.23,0,0,1,176.06,45v3.2H163l0,.12a5.69,5.69,0,0,0,1.44,3.55,4.49,4.49,0,0,0,3.48,1.39,11.32,11.32,0,0,0,3.24-.39A14.92,14.92,0,0,0,174,51.59l1.59,3.63a11.58,11.58,0,0,1-3.5,1.79A14.88,14.88,0,0,1,167.29,57.73Zm-.52-18.09a3.06,3.06,0,0,0-2.58,1.25A6.5,6.5,0,0,0,163,44.17l.06.1h7.21v-.52a4.72,4.72,0,0,0-.88-3A3.16,3.16,0,0,0,166.77,39.64Z"/><path class="cls-3" d="M178.66,53.78l2.82-.6V39.66l-3.12-.6V35.51H187l.26,3.18a6.86,6.86,0,0,1,2-2.64,4.41,4.41,0,0,1,2.8-.95,7.21,7.21,0,0,1,1,.07,6,6,0,0,1,.86.17l-.62,5.36-2.42-.06a4.12,4.12,0,0,0-2.14.5,3.26,3.26,0,0,0-1.29,1.43v10.6l2.82.6v3.53H178.66Z"/><path class="cls-3" d="M212.75,43H208.8l-.62-2.72a5.16,5.16,0,0,0-1.52-.81,6.08,6.08,0,0,0-2-.32,3.94,3.94,0,0,0-2.46.7,2.12,2.12,0,0,0-.91,1.74,2,2,0,0,0,.87,1.64,9.27,9.27,0,0,0,3.47,1.16,14.11,14.11,0,0,1,6,2.37,5.2,5.2,0,0,1,2,4.3,5.72,5.72,0,0,1-2.53,4.8,11,11,0,0,1-6.66,1.86,13.94,13.94,0,0,1-4.62-.74A11.8,11.8,0,0,1,196,54.89L196,50h4.11l.81,2.84a3.37,3.37,0,0,0,1.43.65,8.31,8.31,0,0,0,1.89.21,4.81,4.81,0,0,0,2.73-.64,2,2,0,0,0,.94-1.75,2.05,2.05,0,0,0-.95-1.67,9.67,9.67,0,0,0-3.49-1.25,14,14,0,0,1-5.81-2.33,5.05,5.05,0,0,1-2-4.2,6.09,6.09,0,0,1,2.26-4.72,9.43,9.43,0,0,1,6.43-2,16.53,16.53,0,0,1,4.8.68,10.16,10.16,0,0,1,3.56,1.75Z"/></g></g></svg>