<?xml version="1.0" encoding="utf-8"?>
<!-- Generator: Adobe Illustrator 16.0.4, SVG Export Plug-In . SVG Version: 6.00 Build 0)  -->
<!DOCTYPE svg PUBLIC "-//W3C//DTD SVG 1.1//EN" "http://www.w3.org/Graphics/SVG/1.1/DTD/svg11.dtd">
<svg version="1.1" id="Layer_1" xmlns="http://www.w3.org/2000/svg" xmlns:xlink="http://www.w3.org/1999/xlink" x="0px" y="0px"
	 width="563.833px" height="93.905px" viewBox="24.286 347.833 563.833 93.905"
	 enable-background="new 24.286 347.833 563.833 93.905" xml:space="preserve">
<g>
	<path  d="M157.452,385.476c-6.476,0-7.69,1.214-7.69,1.214l5.262-12.143h65.571c12.548,0,19.833,8.904,17,20.238
		l-10.524,38.453c-1.214,5.262,0.405,7.69,0.405,7.69H195.5l-2.024-6.477c-0.81,3.644-5.667,6.477-9.31,6.477h-28.333
		c-12.548,0-19.833-8.905-17-20.238l3.643-12.952c1.619-6.477,8.905-11.334,15.786-11.334h40.881c2.428,0,4.452-2.023,5.262-4.452
		l0.405-1.214c0.81-3.238-0.81-5.667-4.048-5.667L157.452,385.476z M189.429,429.596c2.833,0,5.262-2.024,6.071-4.857l4.452-15.786
		h-19.023c-3.238,0-6.072,2.429-6.881,5.667l-2.023,8.095c-1.214,4.048,1.214,7.286,5.262,7.286L189.429,429.596z"/>
	<path  d="M157.452,385.476c-6.476,0-7.69,1.214-7.69,1.214l5.262-12.143h65.571c12.548,0,19.833,8.904,17,20.238
		l-10.524,38.453c-1.214,5.262,0.405,7.69,0.405,7.69H195.5l-2.024-6.477c-0.81,3.644-5.667,6.477-9.31,6.477h-28.333
		c-12.548,0-19.833-8.905-17-20.238l3.643-12.952c1.619-6.477,8.905-11.334,15.786-11.334h40.881c2.428,0,4.452-2.023,5.262-4.452
		l0.405-1.214c0.81-3.238-0.81-5.667-4.048-5.667L157.452,385.476z M189.429,429.596c2.833,0,5.262-2.024,6.071-4.857l4.452-15.786
		h-19.023c-3.238,0-6.072,2.429-6.881,5.667l-2.023,8.095c-1.214,4.048,1.214,7.286,5.262,7.286L189.429,429.596z"/>
	<path  d="M502.31,441.333c0,0,3.238-3.643,4.857-8.904l13.356-48.572c1.215-5.262,0-8.905,0-8.905h29.953
		l1.214,7.286c0.81-3.643,6.477-7.286,10.523-7.286h25.905l-5.262,19.024c0,0-0.81-2.024-7.286-2.024h-18.619
		c-2.833,0-5.262,2.024-6.071,4.857l-9.714,36.023c-1.215,5.263,0,8.905,0,8.905L502.31,441.333z"/>
	<path d="M502.31,441.333c0,0,3.238-3.643,4.857-8.904l13.356-48.572c1.215-5.262,0-8.905,0-8.905h29.953
		l1.214,7.286c0.81-3.643,6.477-7.286,10.523-7.286h25.905l-5.262,19.024c0,0-0.81-2.024-7.286-2.024h-18.619
		c-2.833,0-5.262,2.024-6.071,4.857l-9.714,36.023c-1.215,5.263,0,8.905,0,8.905L502.31,441.333z"/>
	<path d="M374.81,423.119c-1.214,3.643,1.214,6.477,4.857,6.477h18.619c6.476,0,7.69-1.215,7.69-1.215l-3.644,12.952
		h-43.31c-12.547,0-19.833-8.904-17-20.237l16.19-59.905l33.596-2.429l-4.452,16.19h28.333l-2.833,10.524h-28.334L374.81,423.119z"
		/>
	<path d="M374.81,423.119c-1.214,3.643,1.214,6.477,4.857,6.477h18.619c6.476,0,7.69-1.215,7.69-1.215l-3.644,12.952
		h-43.31c-12.547,0-19.833-8.904-17-20.237l16.19-59.905l33.596-2.429l-4.452,16.19h28.333l-2.833,10.524h-28.334L374.81,423.119z"
		/>
	<path d="M127.095,347.833c12.143,0,19.833,8.905,17,20.238l-4.048,14.977c-1.619,6.071-7.286,8.904-13.762,10.523
		c6.476,3.643,10.119,9.31,7.69,18.215l-5.262,19.023c-1.619,5.667-7.69,10.119-13.762,10.119l-90.667,0.404
		c0,0,4.453-7.285,5.667-10.523l19.833-73.667c0.81-3.238,0-9.31,0-9.31H127.095z M85,363.619l-6.071,22.667h21.857
		c3.238,0,6.071-2.429,6.881-5.667L110.5,370.5c1.214-4.048-1.214-7.286-5.262-7.286H85V363.619z M74.881,400.857L68,426.357h21.857
		c3.238,0,6.072-2.429,6.881-5.667l3.643-12.952c1.214-4.048-1.214-7.286-5.262-7.286H74.881V400.857z"/>
	<path  d="M127.095,347.833c12.143,0,19.833,8.905,17,20.238l-4.048,14.977c-1.619,6.071-7.286,8.904-13.762,10.523
		c6.476,3.643,10.119,9.31,7.69,18.215l-5.262,19.023c-1.619,5.667-7.69,10.119-13.762,10.119l-90.667,0.404
		c0,0,4.453-7.285,5.667-10.523l19.833-73.667c0.81-3.238,0-9.31,0-9.31H127.095z M85,363.619l-6.071,22.667h21.857
		c3.238,0,6.071-2.429,6.881-5.667L110.5,370.5c1.214-4.048-1.214-7.286-5.262-7.286H85V363.619z M74.881,400.857L68,426.357h21.857
		c3.238,0,6.072-2.429,6.881-5.667l3.643-12.952c1.214-4.048-1.214-7.286-5.262-7.286H74.881V400.857z"/>
	<path  d="M291.833,374.952c0,0-0.405,3.238,2.833,7.691l6.881,11.738l17.405-12.143
		c4.857-3.238,6.071-7.286,6.071-7.286h25.096l-42.5,29.952l19.023,32.382c2.024,3.237,4.048,4.047,4.048,4.047H289.81
		c0,0,0.405-2.833-2.833-7.69l-6.071-10.119l-25.095,17.81h-21.048L274.833,413L255,379c-1.619-3.238-4.048-4.048-4.048-4.048
		H291.833z"/>
	<path  d="M291.833,374.952c0,0-0.405,3.238,2.833,7.691l6.881,11.738l17.405-12.143
		c4.857-3.238,6.071-7.286,6.071-7.286h25.096l-42.5,29.952l19.023,32.382c2.024,3.237,4.048,4.047,4.048,4.047H289.81
		c0,0,0.405-2.833-2.833-7.69l-6.071-10.119l-25.095,17.81h-21.048L274.833,413L255,379c-1.619-3.238-4.048-4.048-4.048-4.048
		H291.833z"/>
	<path d="M448.477,412.596l-2.834,10.118c-1.214,4.048,1.215,7.286,5.263,7.286h41.69c6.476,0,7.69-1.214,7.69-1.214
		l-5.667,12.952h-65.571c-12.143,0-19.833-8.905-17-20.238l9.714-34.81c1.619-6.476,8.905-11.333,15.786-11.333h56.667
		c12.547,0,19.833,8.905,17,20.238l-4.857,17H448.477z M476,400.857l2.023-8.096c1.215-4.047-1.214-7.286-5.262-7.286h-12.548
		c-2.833,0-5.262,2.024-6.071,4.857l-2.833,10.119H476V400.857z"/>
	<path d="M448.477,412.596l-2.834,10.118c-1.214,4.048,1.215,7.286,5.263,7.286h41.69c6.476,0,7.69-1.214,7.69-1.214
		l-5.667,12.952h-65.571c-12.143,0-19.833-8.905-17-20.238l9.714-34.81c1.619-6.476,8.905-11.333,15.786-11.333h56.667
		c12.547,0,19.833,8.905,17,20.238l-4.857,17H448.477z M476,400.857l2.023-8.096c1.215-4.047-1.214-7.286-5.262-7.286h-12.548
		c-2.833,0-5.262,2.024-6.071,4.857l-2.833,10.119H476V400.857z"/>
</g>
</svg>
