<svg xmlns="http://www.w3.org/2000/svg" viewBox="0 0 131.73 21.84"><defs><style>.cls-1{fill:#fff;}</style></defs><title>Asset 48</title><g id="Layer_2" data-name="Layer 2"><g id="Layer_1-2" data-name="Layer 1"><path class="cls-1" d="M31.06,8.79c-1.5,0-1.79.32-1.79.32l1.22-2.8H45.85c2.89,0,4.65,2.13,3.93,4.75l-2.45,9a2.24,2.24,0,0,0,.12,1.82H40l-.5-1.52a2.42,2.42,0,0,1-2.22,1.52H30.67c-2.89,0-4.65-2.13-3.93-4.75L27.58,14a3.93,3.93,0,0,1,3.65-2.66h9.51a1.35,1.35,0,0,0,1.23-1l.08-.28a1,1,0,0,0-.94-1.3ZM38.59,19.1A1.53,1.53,0,0,0,40,18l1-3.7H36.55A1.75,1.75,0,0,0,35,15.57l-.51,1.86a1.23,1.23,0,0,0,1.22,1.67Z"/><path class="cls-1" d="M111.73,21.83a5.92,5.92,0,0,0,1.11-2.1l3.1-11.34a4,4,0,0,0,0-2.1h7L123.24,8a3,3,0,0,1,2.47-1.71h6l-1.2,4.41s-.22-.51-1.72-.51h-4.37A1.53,1.53,0,0,0,123,11.34l-2.29,8.4a4,4,0,0,0,0,2.1Z"/><path class="cls-1" d="M81.88,17.54A1.14,1.14,0,0,0,83,19.09h4.36c1.5,0,1.79-.32,1.79-.32l-.83,3.06H78.24c-2.89,0-4.65-2.13-3.93-4.75l3.81-14L86,2.56l-1,3.75h6.64L90.9,8.79H84.26Z"/><path class="cls-1" d="M24,0c2.89,0,4.65,2.13,3.93,4.75l-1,3.52c-.38,1.4-1.71,2.08-3.18,2.48A3.51,3.51,0,0,1,25.58,15l-1.21,4.41a3.51,3.51,0,0,1-3.26,2.37H0a14.81,14.81,0,0,0,1.28-2.47L6,2.18A7,7,0,0,0,5.94,0ZM14.16,3.62,12.7,9h5.09a1.75,1.75,0,0,0,1.59-1.3L20,5.29A1.23,1.23,0,0,0,18.8,3.62Zm-2.39,8.77-1.63,6h5.09a1.75,1.75,0,0,0,1.59-1.3l.82-3a1.24,1.24,0,0,0-1.22-1.67Z"/><path class="cls-1" d="M62.54,6.31a2.66,2.66,0,0,0,.62,1.78l1.59,2.73L68.82,8A3.86,3.86,0,0,0,70.24,6.3h5.87l-9.93,7,4.42,7.54a2.38,2.38,0,0,0,.93,1l-9.58,0a2.91,2.91,0,0,0-.62-1.78L60,17.7l-5.88,4.13h-5l9.39-6.61L53.86,7.3a2.45,2.45,0,0,0-.93-1Z"/><path class="cls-1" d="M99.13,15.06l-.64,2.37A1.23,1.23,0,0,0,99.7,19.1h9.79c1.5,0,1.79-.32,1.79-.32l-1.34,3.06H94.58c-2.89,0-4.65-2.13-3.93-4.75L92.87,9A3.93,3.93,0,0,1,96.52,6.3h13.23c2.89,0,4.65,2.13,3.93,4.75l-1.09,4Zm6.41-2.74.51-1.86a1.23,1.23,0,0,0-1.22-1.67h-2.91a1.53,1.53,0,0,0-1.39,1.14l-.65,2.4Z"/></g></g></svg>